<svg baseProfile="tiny" xmlns="http://www.w3.org/2000/svg" viewBox="0 0 364 40">
    <path fill="#002960"
          d="M24.1 29.6v-.9c2.2-.2 3-1.2 2.8-4.1l-.8-18.8L17 29.4h-1.2L6.6 5.8l-.8 17.7c-.2 3.7.7 4.7 3.5 5.2v.9H0v-.9c2.6-.3 3.7-1.7 3.9-5.5l.9-17.6c.2-3.3-2.1-3.7-3.6-4V.7h7.6l8.7 22.4L26 .9h7.2v.9C31 2 29.9 3.1 30 5.7l.9 18.1c.2 3.5 1.2 4.7 3.7 4.9v.9H24.1M44.2 30.1c-6.2 0-8.6-4.3-8.6-8.6 0-5.3 4-10.2 9.4-10.2 2.2 0 4.1.6 5.4 1.6-.1 1.1-.6 2.5-1.2 3.2l-.3.1c-1.5-1.9-3.5-2.6-5.2-2.6-1.2 0-2.4.3-3.3 1.1-.9.9-1.4 2.4-1.4 4.5 0 4.4 1.9 8.7 6.8 8.7 1.8 0 3.6-.5 5.3-1.5l.4.9c-1.7 1.7-4.7 2.8-7.3 2.8M72.3 29.6c-4-4.5-7.7-9.1-11.1-13.3l-1.4 1.5v1.6c0 8.7 0 8.9 3.3 9.4v.9H52.8v-.9c3-.2 3.3-.8 3.3-8.8V10c0-7.5-.2-8.1-3.3-8.4V.7h10.3v.9c-2.9.4-3.3.9-3.3 8.3v5.4l7.6-8.4c1.9-2 2-3.1 2-3.7 0-.9-.5-1.4-1.8-1.6V.7h9.7v.9c-2.8.1-4.4 1.8-7.5 5.1l-6.2 6.8c1.9 2.5 5.2 6.4 7.1 8.7 5.1 5.9 6.7 6.3 8.3 6.5v.9h-6.7"/>
    <path fill="#002960"
          d="M83.9 6.5c-1.3 0-2.3-1-2.3-2.3 0-1.3.9-2.3 2.3-2.3 1.3 0 2.3 1 2.3 2.3 0 1.3-1 2.3-2.3 2.3m-4.8 23.1v-.9c3.2-.2 3.2-.2 3.2-6.5v-4.4c0-5-.4-5.2-3.3-5.3v-.9h6.7v10.6c0 6.3.1 6.3 2.9 6.5v.9h-9.5zM103 29.6v-.9c2.6-.2 2.8-.2 2.8-6.2v-3.6c0-4.3-1.8-5.3-4-5.3-2.7 0-5 2.1-5 3.7v4.9c0 6.3.1 6.3 2.9 6.5v.9h-9.6v-.9c3.2-.2 3.2-.2 3.2-6.5v-4.4c0-5-.4-5.2-3.3-5.3v-.9h6.7v3.2c1.9-2.4 4.3-3.5 6.6-3.5 2.9 0 5.8 1.7 5.8 7.2v4c0 6 0 6 3.2 6.2v.9H103M120.4 30c-2.4 0-5.2-.6-5.9-1.8-.3-.4-.5-2.8-.5-4.1h1.1c.7 3.2 2.9 4.6 5.4 4.6 2.6 0 4.2-1 4.2-2.7 0-4.9-10.3-3.7-10.3-9.8 0-2.8 2.2-5.1 5.9-5.1 2.5 0 5.1.7 5.3.9.2.2.5 1.9.5 4.5h-.8c-.3-1.1-1.8-4.2-5.2-4.2-1.7 0-3 .8-3 2.3 0 4.3 10.3 3.3 10.3 9.9-.1 3.1-2.8 5.5-7 5.5M143 17.9h-9.3c.3-3.3 1.8-5.2 4.7-5.2 2.9 0 4.6 1.9 4.6 5.2m3.3 9.3l-.4-.9c-1.7 1-3.5 1.5-5.3 1.5-5 0-7-4.5-6.9-8.6h12.6c.2-4.1-2-8.1-7.2-8.1s-8.8 4.2-8.8 10c0 4.5 2.3 8.9 8.6 8.9 2.6.1 5.7-1 7.4-2.8M163.3 16l-3.6 10.2c-2.4 6.7-3.7 11.1-10.4 13.9-.5-.5-1.5-2-1.7-2.8 5.1-1.2 7.6-3.4 9.2-7.5l-4.7-10.4c-2.8-6.1-3-6.4-5-6.5V12h8.4v.9c-1.3.2-1.7.6-1.7 1.3 0 .8.4 1.6 1.3 3.8l3.4 7.9 3.5-10.2c.6-1.8-.2-2.6-1.8-2.7v-.9h6.5v.9c-1.3-.3-2.6.7-3.4 3"/>
    <g fill="#002960">
        <path d="M187.4 26c-1.5 1.2-4.1 1.5-6.1 1.5-5.3 0-9.5-3.7-9.5-8.7 0-3.1 1.4-5.1 3.4-5.6 2.5 4.4 7.2 9.2 12.2 12.8m11.7 3.6v-.9c-2-.2-5-1.9-8.3-4.2 1.2-1.9 1.4-4.7 1.7-6.7.3-1.8 1.6-1.7 2.4-1.8v-.8h-8.2v.8c1.9.3 3.8.5 3.8 3.5 0 1.6-.3 3.1-1 4.2-7.1-5.6-13.7-13.3-13.7-17.2 0-1.9 1.2-2.8 3-2.8 2.3 0 4.5 1.6 5.6 4.6h.8l-.1-5.4h-.8c-.1.4-.4.6-.6.6-1 0-2.4-1.1-4.9-1.1-2.7 0-5.5 1.7-5.5 5.4 0 1.4.5 2.7 1.2 4.2-3.7 1.2-5.7 4.4-5.7 8.1 0 6.7 5.1 10.3 10.8 10.3 3.6 0 6.4-1.1 9-3.3 1.6 1.2 3.2 2.3 4.2 2.7h6.3zM213.3 30.3c-8.3 0-13.6-5.5-13.6-14.4C199.7 6.7 205.4 0 214 0c4.3 0 5.9 1.2 7.6 1.2.8 0 1.3-.3 1.6-.9h.8l.3 8.6h-.9c-1.4-5-4.3-7.5-9.3-7.5-6.4 0-10.4 4.5-10.4 12.6 0 8.4 4 14 10.8 14 3.8 0 7.5-1.7 9.2-4l.8.9c-1.5 2.7-5.7 5.4-11.2 5.4"/>
    </g>
    <path fill="#002960"
          d="M242.3 21.8c0 4.2-1.9 6.8-5.6 6.8-3.3 0-6.3-3-6.3-9.1 0-4.3 2.1-6.7 5.5-6.7 3.2-.1 6.4 3 6.4 9m3.6-1.2c0-3.5-1.4-6.4-4-8-1.5-1-3.4-1.4-5.5-1.4-5.6 0-9.6 4.1-9.6 9.4 0 3.5 1.4 6.4 4 8.1 1.5 1 3.5 1.4 5.6 1.4 5.5-.1 9.5-4.1 9.5-9.5M272.5 29.6v-.9c2.6-.2 2.7-.5 2.7-5.9v-4.1c0-3.7-1.5-5.1-3.7-5.1-2.7 0-5 2-5 3.8v5.1c0 5.7-.1 5.9 2.9 6.2v.9h-9v-.9c2.5-.2 2.7-.5 2.7-6.4v-3.6c0-3.6-1.2-5.1-3.9-5.1-2.5 0-4.9 2-4.9 3.9v5.2c0 5.7.3 5.7 2.9 6v.9h-9.5v-.9c3-.1 3.1-.1 3.1-5.8v-5.1c0-5-.3-5.2-3.3-5.3v-.9h6.8v3.2c1.4-1.9 3.8-3.5 6.3-3.5 3 0 4.8 1.5 5.5 3.9 1.7-2.3 4-3.9 6.8-3.9 3.2 0 5.9 1.9 5.9 6.9v4.7c0 5.2-.2 5.7 3.1 5.8v.9h-9.4M299.5 21c0 4.7-2 7.7-5.6 7.7-2.4 0-5-1.4-5-3.1v-8.9c0-1.5 2.2-3 4.6-3 3.7-.1 6 2.7 6 7.3m3.6-.5c0-5.2-3.4-9.2-8.1-9.2-2.6 0-4.7 1.2-6.2 2.9v-2.7h-6.6v.9c2.8.1 3.1.2 3.1 6.1v12.3c0 6.4.2 6.9-3 7.1v.9h9.6v-.9c-3.4-.1-3.2-.7-3.2-7.3v-2.5c1.4 1.4 3.5 1.9 5.4 1.9 5.6 0 9-4 9-9.5"/>
    <path fill="#002960"
          d="M315.7 25.3c0 1.5-2 2.8-3.6 2.8-1.5 0-2.8-1-2.8-3 0-3.7 3.8-3.3 6.4-4.7v4.9m7.5 4.3v-.9h-1.1c-2.5 0-2.8-.9-2.8-4.4v-6c0-1.2-.1-2.2-.4-3.1-.9-2.8-3.2-3.8-6.3-3.8-2 0-4.8.7-6.4 2.1.1.9.9 2.5 1.4 3l.5-.1c.8-2 2.2-3.4 4.3-3.4 2.4 0 3.4 1.7 3.4 3.6v2.1c0 1.4-6 1.6-8.5 3.7-.9.8-1.5 1.7-1.5 3 0 2.8 2 4.7 4.9 4.7 1.9 0 3.5-.6 5.1-2.5.3 1.3 1.4 2 3.1 2h4.3zM335.8 29.6v-.9c2.6-.2 2.8-.2 2.8-6.2v-3.6c0-4.3-1.8-5.3-4-5.3-2.7 0-5 2.1-5 3.7v4.9c0 6.3.1 6.3 2.9 6.5v.9h-9.6v-.9c3.2-.2 3.2-.2 3.2-6.5v-4.4c0-5-.4-5.2-3.3-5.3v-.9h6.7v3.2c1.9-2.4 4.3-3.5 6.6-3.5 2.9 0 5.8 1.7 5.8 7.2v4c0 6 0 6 3.2 6.2v.9h-9.3M360.1 16l-3.6 10.2c-2.4 6.7-3.7 11.1-10.4 13.9-.5-.5-1.5-2-1.7-2.8 5.1-1.2 7.6-3.4 9.2-7.5L349 19.3c-2.8-6.1-3-6.4-5-6.5v-.9h8.4v.9c-1.3.2-1.7.6-1.7 1.3 0 .8.4 1.6 1.3 3.8l3.4 7.9 3.5-10.2c.6-1.8-.3-2.6-1.8-2.7V12h6.5v.9c-1.5-.2-2.7.8-3.5 3.1"/>
</svg>